PathFileType	4	(X/Y/Z)	s01c0302.trc
DataRate	CameraRate	NumFrames	NumMarkers	Units	OrigDataRate	OrigDataStartFrame	OrigNumFrames
200	200	4	48	mm	200	750	2000
Frame#	Time	racr			lacr			c7			jug			rlel			rdr			llel			ldr			s2			lic			ric			lasi			rasi			rpsi			lpsi			rgt			lgt			rth1			rth2			rth3			rth4			rlfc			rsh1			rsh2			rsh3			rsh4			rlmal			rmmal			rcal			rtoe			rmt5			lth1			lth2			lth4			lth3			llfc			lsh1			lsh2			lsh3			lsh4			llmal			lmmal			lcal			ltoe			lmt5			SBIKE			LBIKE			RBIKE			
		X1	Y1	Z1	X2	Y2	Z2	X3	Y3	Z3	X4	Y4	Z4	X5	Y5	Z5	X6	Y6	Z6	X7	Y7	Z7	X8	Y8	Z8	X9	Y9	Z9	X10	Y10	Z10	X11	Y11	Z11	X12	Y12	Z12	X13	Y13	Z13	X14	Y14	Z14	X15	Y15	Z15	X16	Y16	Z16	X17	Y17	Z17	X18	Y18	Z18	X19	Y19	Z19	X20	Y20	Z20	X21	Y21	Z21	X22	Y22	Z22	X23	Y23	Z23	X24	Y24	Z24	X25	Y25	Z25	X26	Y26	Z26	X27	Y27	Z27	X28	Y28	Z28	X29	Y29	Z29	X30	Y30	Z30	X31	Y31	Z31	X32	Y32	Z32	X33	Y33	Z33	X34	Y34	Z34	X35	Y35	Z35	X36	Y36	Z36	X37	Y37	Z37	X38	Y38	Z38	X39	Y39	Z39	X40	Y40	Z40	X41	Y41	Z41	X42	Y42	Z42	X43	Y43	Z43	X44	Y44	Z44	X45	Y45	Z45	X46	Y46	Z46	X47	Y47	Z47	X48	Y48	Z48	
750	3.7500	670.397949	1401.254028	-102.496124	715.532776	1345.631836	-423.415344	658.223145	1457.322144	-271.950287	649.052979	1294.112183	-259.764221	615.986023	1121.738403	-0.687524	738.043579	877.440979	-61.290127	665.181824	1081.874146	-541.139221	757.977234	871.322815	-465.643738	149.630447	1226.114624	-332.722046	318.825287	1209.025879	-452.727081	265.923157	1262.461304	-131.953400	311.736725	1160.243286	-422.930450	301.236328	1209.235596	-153.601578	151.315338	1277.557983	-260.847382	162.707062	1263.955811	-365.197083	224.433594	1163.348877	-94.309746	228.438675	1074.901367	-464.634613	326.790100	1086.483276	-64.725800	403.470062	1054.968506	-64.246994	484.593719	1015.367188	-64.662598	427.246460	1102.949585	-83.875763	563.945190	936.315857	-83.015450	495.981567	855.377258	-58.591854	442.110016	788.716248	-61.418427	379.063049	727.071289	-74.922203	480.093262	757.460999	-96.185997	273.475098	635.063110	-98.875046	318.325653	626.624878	-173.810501	221.033249	631.561340	-154.707993	422.288879	451.160950	-134.504074	321.267761	493.813629	-67.515747	237.685272	959.298767	-466.261841	272.616791	877.114563	-461.877686	322.186401	897.145569	-462.342560	299.243225	797.778748	-443.876556	320.630615	675.453796	-426.091949	246.605942	592.308167	-458.009735	217.401123	511.923767	-449.283447	185.189011	432.747314	-435.273010	271.105316	494.473358	-425.635925	144.908493	314.501038	-419.255798	150.591278	268.454681	-356.797974	97.191917	319.407349	-375.527924	289.949432	119.219383	-374.432465	197.805206	170.724380	-442.263519	-225.073334	892.979248	-254.338303	-12.773693	84.611328	-456.442200	-21.825083	81.464775	-56.292553	
751	3.7550	668.222717	1402.567993	-100.831711	716.443176	1344.014648	-420.749878	657.547546	1457.241699	-270.363586	647.855286	1294.035889	-257.716705	616.503723	1123.369019	-0.152355	738.041870	879.038391	-59.924408	664.249451	1081.147583	-540.668640	757.852234	871.200012	-465.855042	149.020126	1226.439575	-335.622223	318.263916	1211.155151	-454.172424	264.769989	1262.738892	-132.066544	311.726440	1162.808472	-424.378418	300.528900	1209.831665	-154.039688	151.102173	1278.593140	-261.342133	162.175064	1265.479980	-365.640717	222.895111	1163.330078	-95.931557	228.572433	1077.125000	-465.932739	324.220795	1084.851196	-67.510017	400.862427	1053.048584	-66.143883	481.825378	1013.206360	-66.445518	424.496429	1101.354858	-85.228424	562.885864	933.045532	-85.314934	494.373718	851.096130	-60.510189	441.068787	784.018311	-63.033226	378.551392	721.887695	-75.850655	479.356689	752.741760	-97.417908	274.936493	627.698975	-98.173233	319.261627	621.109619	-173.791092	221.630493	622.014709	-153.680908	431.532043	452.251678	-133.910065	328.558014	488.945709	-66.871185	240.494736	961.084717	-467.196289	276.378357	879.294067	-462.120605	325.792206	899.875793	-462.578461	303.584686	800.299133	-444.071167	323.729797	677.250793	-426.807068	247.756195	595.345337	-458.384705	216.492157	515.814270	-449.398743	182.392746	437.465759	-435.210632	269.831055	497.088074	-425.669891	138.949219	320.282745	-419.386292	124.019882	288.037079	-372.014038	91.027962	325.923553	-375.346924	279.633759	121.837746	-374.685150	188.642136	175.332138	-442.344727	-225.163071	893.007690	-254.387085	-12.800097	84.610878	-456.452637	-21.863264	81.495750	-56.321556	
752	3.7600	666.315308	1403.475464	-99.280907	717.152832	1342.359497	-417.965881	656.885986	1457.122925	-268.761292	646.614746	1293.884888	-255.898117	617.178894	1124.755859	-0.306514	737.844910	879.450134	-59.895519	663.114014	1080.201172	-540.174622	757.685425	870.981323	-465.841461	148.467697	1226.597534	-338.083771	317.492981	1213.519287	-455.638519	263.788788	1262.839600	-132.223328	311.113739	1164.887451	-425.664948	300.033508	1210.248901	-154.280777	150.970795	1279.296631	-261.490021	161.597000	1266.852783	-365.751678	221.490524	1162.556152	-97.483315	228.823914	1079.280273	-467.067657	321.984985	1082.598877	-69.665497	398.504669	1050.292969	-68.028450	479.254547	1009.929871	-68.440186	422.608948	1098.654663	-86.075264	561.318542	928.291077	-87.413879	492.049744	845.711670	-62.305687	439.273468	778.322266	-64.661995	377.446014	715.390442	-76.950752	477.925751	746.988037	-98.519157	275.978424	619.585266	-97.773552	319.769684	614.676636	-173.841599	222.218964	611.066345	-152.513565	440.744019	452.435089	-133.584351	335.789398	483.348694	-66.015892	243.551163	962.663086	-467.958557	280.444122	881.565857	-462.250183	329.504669	902.752075	-462.386353	308.553741	802.809937	-444.187164	327.527954	678.945007	-427.711975	249.458832	598.538269	-458.733490	215.991821	519.924561	-449.486755	179.869278	442.614319	-435.169617	268.954987	499.816467	-425.732086	133.146896	326.579834	-419.415619	107.320900	291.686035	-362.466736	85.099617	332.916870	-375.203583	269.571625	125.047859	-374.815186	179.783707	180.482361	-442.383179	-225.267242	892.971802	-254.435699	-12.817882	84.609863	-456.464600	-21.886154	81.497467	-56.317593	
753	3.7650	664.777039	1403.953857	-97.867516	717.731689	1340.927002	-415.301270	656.230042	1456.954956	-267.173645	645.437561	1293.567993	-254.191772	617.936218	1125.543701	-0.901251	737.560608	879.690002	-60.087036	661.619995	1079.236084	-539.653564	757.527954	870.769592	-465.924805	147.968079	1226.597656	-340.119446	316.545990	1215.968628	-457.056824	263.321777	1262.640137	-132.331421	310.408325	1166.822266	-426.930267	299.638733	1210.212036	-154.786896	150.933975	1279.817017	-261.274719	161.038315	1268.068115	-365.687317	220.385468	1161.057373	-98.920776	229.104218	1081.287354	-468.185242	320.208954	1079.795410	-71.581841	396.543274	1046.757690	-69.774742	476.975006	1005.718567	-70.527985	421.119446	1095.280273	-86.803558	559.036255	922.438965	-89.872482	489.286011	839.516296	-64.266502	437.205688	771.709534	-66.228760	376.006744	708.023193	-77.909523	476.253571	740.200867	-99.522316	276.826111	610.208435	-97.466553	320.415894	606.626343	-174.147247	222.367722	599.300049	-151.706833	449.175842	452.075165	-133.128235	342.743164	477.074158	-65.226212	246.705811	963.996826	-468.595215	285.256500	883.571228	-462.183624	332.645050	905.393494	-461.507324	313.990875	805.289429	-444.269653	331.759125	680.560425	-428.358124	251.523178	601.764587	-458.857605	215.907181	524.193298	-449.636169	177.645996	448.057281	-435.269623	268.038208	502.775970	-425.637909	127.082794	334.244934	-420.651855	100.367729	282.886536	-334.106750	79.476585	340.384003	-375.112946	259.939423	128.920181	-375.001831	171.223587	186.163818	-442.395782	-225.304825	892.955505	-254.430832	-12.823462	84.604225	-456.471802	-21.899923	81.486420	-56.334949	
